// https://publicdomainvectors.org/en/free-clipart/Ball-of-yarn-and-cat/79877.html

#define splash_width 64
#define splash_height 128
static const unsigned char splash_bits[] = {
	0x00, 0x00, 0x00, 0x00, 0x00, 0x00, 0x00, 0x00,
	0x00, 0x00, 0x00, 0x00, 0x00, 0x00, 0x00, 0x00,
	0x00, 0x00, 0x00, 0x00, 0x00, 0x00, 0x00, 0x00,
	0x00, 0x00, 0x00, 0x00, 0x00, 0x00, 0x00, 0x00,
	0x00, 0x00, 0x00, 0x00, 0x00, 0x00, 0x00, 0x00,
	0x00, 0x00, 0x00, 0x00, 0x00, 0x00, 0x00, 0x00,
	0x00, 0x00, 0x00, 0x00, 0x00, 0x00, 0x00, 0x00,
	0x00, 0x00, 0x00, 0x00, 0x00, 0x00, 0x00, 0x00,
	0x00, 0x00, 0x00, 0x00, 0x00, 0x00, 0x00, 0x00,
	0x00, 0x00, 0x00, 0x00, 0x00, 0x00, 0x00, 0x00,
	0x00, 0x00, 0x00, 0x00, 0x00, 0x00, 0x00, 0x00,
	0x00, 0x00, 0x00, 0x00, 0x00, 0x00, 0x00, 0x00,
	0x00, 0x00, 0x00, 0x00, 0x00, 0x00, 0x00, 0x00,
	0x00, 0x00, 0x00, 0x00, 0x00, 0x00, 0x00, 0x00,
	0x00, 0x00, 0x00, 0x00, 0x00, 0x00, 0x00, 0x00,
	0x00, 0x00, 0x00, 0x00, 0x00, 0x00, 0x00, 0x00,
	0x00, 0x00, 0x00, 0x00, 0x00, 0x00, 0x00, 0x00,
	0x00, 0x00, 0x00, 0x04, 0x00, 0x00, 0x00, 0x00,
	0x00, 0x00, 0x00, 0x0a, 0x00, 0x00, 0x00, 0x00,
	0x00, 0x00, 0x00, 0x0b, 0x00, 0x00, 0x00, 0x00,
	0x00, 0x00, 0x00, 0x11, 0x80, 0x00, 0x00, 0x00,
	0x00, 0x00, 0x00, 0x17, 0x80, 0x00, 0x00, 0x00,
	0x00, 0x00, 0x00, 0x3f, 0xc0, 0x00, 0x00, 0x00,
	0x00, 0x00, 0x00, 0x64, 0x78, 0x00, 0x00, 0x00,
	0x00, 0x00, 0x00, 0x60, 0x07, 0x9f, 0x00, 0x00,
	0x00, 0x00, 0x00, 0x60, 0x00, 0xfe, 0x00, 0x00,
	0x00, 0x00, 0x00, 0xe0, 0x00, 0x7e, 0x00, 0x00,
	0x00, 0x00, 0x00, 0xc0, 0x30, 0x64, 0x00, 0x00,
	0x00, 0x00, 0x01, 0x83, 0xb8, 0x3c, 0x00, 0x00,
	0x01, 0xf0, 0x01, 0x03, 0x90, 0x18, 0x00, 0x00,
	0x01, 0xf8, 0x01, 0x43, 0x87, 0x18, 0x00, 0x00,
	0x03, 0xfc, 0x03, 0x60, 0x0f, 0x18, 0x00, 0x00,
	0x03, 0xf4, 0x06, 0x3f, 0x0f, 0x10, 0x00, 0x00,
	0x03, 0xc6, 0x03, 0xff, 0xf4, 0x10, 0x00, 0x00,
	0x03, 0xc2, 0x06, 0x3f, 0xfe, 0x30, 0x00, 0x00,
	0x03, 0xc1, 0x0c, 0x7f, 0xef, 0x20, 0x00, 0x00,
	0x00, 0xd1, 0x8c, 0x70, 0x7f, 0xe0, 0x00, 0x00,
	0x00, 0x5c, 0xd8, 0x00, 0x0f, 0xe0, 0x00, 0x00,
	0x00, 0x20, 0x38, 0x00, 0x07, 0xc0, 0x00, 0x00,
	0x00, 0x20, 0x18, 0x00, 0x03, 0xc0, 0x00, 0x00,
	0x00, 0x10, 0x0c, 0x00, 0x01, 0x80, 0x00, 0x00,
	0x00, 0x10, 0x0c, 0x00, 0x00, 0x80, 0x00, 0x00,
	0x08, 0x08, 0x00, 0x00, 0x00, 0x80, 0x00, 0x00,
	0x0c, 0x0c, 0x00, 0x00, 0x00, 0x80, 0x00, 0x00,
	0x02, 0x06, 0x00, 0x00, 0x00, 0x80, 0x03, 0xc0,
	0x01, 0x03, 0x00, 0x00, 0x01, 0x80, 0x07, 0xf0,
	0x01, 0x01, 0x80, 0x00, 0x01, 0x80, 0x39, 0xd0,
	0x00, 0x81, 0xfc, 0x00, 0x00, 0x81, 0xe1, 0xf8,
	0x00, 0x83, 0xfe, 0x00, 0x00, 0x66, 0x00, 0x78,
	0x00, 0x8f, 0xff, 0x00, 0x00, 0x38, 0x00, 0x38,
	0x00, 0x9f, 0xff, 0x80, 0x00, 0x00, 0x00, 0xf8,
	0x00, 0xbf, 0xff, 0xc0, 0x00, 0x00, 0x00, 0xf0,
	0x00, 0xff, 0xff, 0xc0, 0x00, 0x00, 0x0f, 0xe0,
	0x00, 0xff, 0xff, 0xe0, 0x00, 0x00, 0x38, 0x40,
	0x00, 0xff, 0xff, 0xe0, 0x00, 0x00, 0x60, 0x00,
	0x01, 0xff, 0xff, 0xe0, 0x00, 0x01, 0x80, 0x00,
	0x02, 0xff, 0xff, 0xe0, 0x00, 0x07, 0x00, 0x00,
	0x06, 0xff, 0xff, 0xe0, 0x00, 0x0c, 0x00, 0x00,
	0x0c, 0x7f, 0xff, 0xe0, 0x00, 0x30, 0x00, 0x00,
	0x08, 0xff, 0xff, 0xe0, 0x00, 0xe0, 0x00, 0x00,
	0x10, 0xff, 0xff, 0xe0, 0x07, 0x00, 0x00, 0x00,
	0x10, 0xbf, 0xff, 0xc0, 0x18, 0x00, 0x00, 0x00,
	0x11, 0x9f, 0xff, 0x80, 0x38, 0x00, 0x00, 0x00,
	0x11, 0x0f, 0xff, 0x00, 0x78, 0x00, 0x00, 0x00,
	0x11, 0x1f, 0xfe, 0x00, 0xf8, 0x00, 0x00, 0x00,
	0x11, 0x11, 0xf0, 0x01, 0xd8, 0x00, 0x00, 0x00,
	0x10, 0x90, 0x00, 0x01, 0x90, 0x00, 0x00, 0x00,
	0x10, 0xb0, 0x00, 0x00, 0x10, 0x00, 0x00, 0x00,
	0x10, 0xe0, 0x00, 0x00, 0x10, 0x00, 0x00, 0x00,
	0x10, 0x60, 0x00, 0x00, 0x30, 0x00, 0x00, 0x00,
	0x08, 0x60, 0x00, 0x00, 0x20, 0x00, 0x00, 0x00,
	0x08, 0x60, 0x00, 0x00, 0x20, 0x00, 0x00, 0x00,
	0x08, 0x60, 0x00, 0x00, 0x60, 0x00, 0x00, 0x00,
	0x04, 0x60, 0x00, 0x00, 0x60, 0x00, 0x00, 0x00,
	0x04, 0x60, 0x00, 0x00, 0x40, 0x00, 0x00, 0x00,
	0x02, 0xe0, 0x00, 0x00, 0xc0, 0x00, 0x00, 0x00,
	0x02, 0xf0, 0x00, 0x01, 0x80, 0x00, 0x00, 0x00,
	0x03, 0xb0, 0x00, 0x01, 0x80, 0x00, 0x00, 0x00,
	0x01, 0x98, 0x00, 0x01, 0x00, 0x00, 0x00, 0x00,
	0x01, 0x98, 0x00, 0x01, 0x00, 0x00, 0x00, 0x00,
	0x01, 0x8e, 0x00, 0x07, 0x00, 0x00, 0x00, 0x00,
	0x01, 0x86, 0x00, 0x0f, 0x00, 0x00, 0x00, 0x00,
	0x01, 0x82, 0x00, 0x1d, 0x00, 0x00, 0x00, 0x00,
	0x00, 0x80, 0x04, 0x19, 0x00, 0x00, 0x00, 0x00,
	0x00, 0x80, 0x04, 0x01, 0x80, 0x00, 0x00, 0x00,
	0x00, 0x80, 0x0c, 0x01, 0x80, 0x00, 0x00, 0x00,
	0x00, 0x80, 0x0c, 0x01, 0x00, 0x00, 0x00, 0x00,
	0x00, 0xc0, 0x08, 0x01, 0x80, 0x00, 0x00, 0x00,
	0x00, 0x40, 0x18, 0x01, 0x00, 0x00, 0x00, 0x00,
	0x00, 0x40, 0x18, 0x01, 0x00, 0x00, 0x00, 0x00,
	0x00, 0x40, 0x30, 0x01, 0x00, 0x00, 0x00, 0x00,
	0x00, 0x40, 0x60, 0x01, 0x00, 0x00, 0x00, 0x00,
	0x00, 0x40, 0x60, 0x01, 0x00, 0x00, 0x00, 0x00,
	0x00, 0x40, 0x60, 0x01, 0x00, 0x00, 0x00, 0x00,
	0x00, 0x40, 0x60, 0x03, 0x00, 0x00, 0x00, 0x00,
	0x00, 0x40, 0xf0, 0x02, 0x00, 0x00, 0x00, 0x00,
	0x00, 0x40, 0xa0, 0x06, 0x00, 0x00, 0x00, 0x00,
	0x00, 0x60, 0xb0, 0x0c, 0x00, 0x00, 0x00, 0x00,
	0x00, 0x20, 0x91, 0xf8, 0x00, 0x00, 0x00, 0x00,
	0x00, 0x20, 0x88, 0x70, 0x00, 0x00, 0x00, 0x00,
	0x00, 0x20, 0x8c, 0x18, 0x00, 0x00, 0x00, 0x00,
	0x00, 0x20, 0x84, 0x0e, 0x00, 0x00, 0x00, 0x00,
	0x00, 0x20, 0x82, 0x01, 0x80, 0x00, 0x00, 0x00,
	0x00, 0x20, 0x83, 0x00, 0x80, 0x00, 0x00, 0x00,
	0x00, 0x21, 0x01, 0x8f, 0xc0, 0x00, 0x00, 0x00,
	0x00, 0x21, 0x00, 0x7f, 0x40, 0x00, 0x00, 0x00,
	0x00, 0x41, 0x00, 0x1d, 0xc0, 0x00, 0x00, 0x00,
	0x00, 0x41, 0x00, 0x02, 0x00, 0x00, 0x00, 0x00,
	0x00, 0xfd, 0x00, 0x00, 0x00, 0x00, 0x00, 0x00,
	0x00, 0xd7, 0x00, 0x00, 0x00, 0x00, 0x00, 0x00,
	0x00, 0x7e, 0x00, 0x00, 0x00, 0x00, 0x00, 0x00,
	0x00, 0x08, 0x00, 0x00, 0x00, 0x00, 0x00, 0x00,
	0x00, 0x00, 0x00, 0x00, 0x00, 0x00, 0x00, 0x00,
	0x00, 0x00, 0x00, 0x00, 0x00, 0x00, 0x00, 0x00,
	0x00, 0x00, 0x00, 0x00, 0x00, 0x00, 0x00, 0x00,
	0x00, 0x00, 0x00, 0x00, 0x00, 0x00, 0x00, 0x00,
	0x00, 0x00, 0x00, 0x00, 0x00, 0x00, 0x00, 0x00,
	0x00, 0x00, 0x00, 0x00, 0x00, 0x00, 0x00, 0x00,
	0x00, 0x00, 0x00, 0x00, 0x00, 0x00, 0x00, 0x00,
	0x00, 0x00, 0x00, 0x00, 0x00, 0x00, 0x00, 0x00,
	0x00, 0x00, 0x00, 0x00, 0x00, 0x00, 0x00, 0x00,
	0x00, 0x00, 0x00, 0x00, 0x00, 0x00, 0x00, 0x00,
	0x00, 0x00, 0x00, 0x00, 0x00, 0x00, 0x00, 0x00,
	0x00, 0x00, 0x00, 0x00, 0x00, 0x00, 0x00, 0x00,
	0x00, 0x00, 0x00, 0x00, 0x00, 0x00, 0x00, 0x00,
	0x00, 0x00, 0x00, 0x00, 0x00, 0x00, 0x00, 0x00,
	0x00, 0x00, 0x00, 0x00, 0x00, 0x00, 0x00, 0x00,
	0x00, 0x00, 0x00, 0x00, 0x00, 0x00, 0x00, 0x00
};
